<svg width="16" height="17" viewBox="0 0 16 17" fill="none" xmlns="http://www.w3.org/2000/svg">
<path d="M15.2933 0.919599C14.8401 0.467064 14.2258 0.212891 13.5853 0.212891C12.9449 0.212891 12.3306 0.467064 11.8773 0.919599L0 12.7969V16.2129H3.416L15.2933 4.3356C15.7457 3.88228 15.9998 3.26802 15.9998 2.6276C15.9998 1.98718 15.7457 1.37292 15.2933 0.919599V0.919599ZM2.86667 14.8796H1.33333V13.3463L10.2067 4.4796L11.74 6.01293L2.86667 14.8796ZM14.3507 3.39293L12.6793 5.06427L11.1493 3.53093L12.82 1.86227C13.0233 1.65893 13.2991 1.5447 13.5867 1.5447C13.8742 1.5447 14.15 1.65893 14.3533 1.86227C14.5567 2.0656 14.6709 2.34138 14.6709 2.62893C14.6709 2.91649 14.5567 3.19227 14.3533 3.3956L14.3507 3.39293Z" fill="#6172F3"/>
</svg>
