<svg width="16" height="17" viewBox="0 0 16 17" fill="none" xmlns="http://www.w3.org/2000/svg">
<g clip-path="url(#clip0_275_1431)">
<path d="M14.6668 2.88053H11.3335V1.5472C11.3335 1.19358 11.193 0.85444 10.943 0.604392C10.6929 0.354343 10.3538 0.213867 10.0002 0.213867L6.00016 0.213867C5.64654 0.213867 5.3074 0.354343 5.05735 0.604392C4.80731 0.85444 4.66683 1.19358 4.66683 1.5472V2.88053H1.3335V4.21387H2.66683V14.2139C2.66683 14.7443 2.87754 15.253 3.25262 15.6281C3.62769 16.0032 4.1364 16.2139 4.66683 16.2139H11.3335C11.8639 16.2139 12.3726 16.0032 12.7477 15.6281C13.1228 15.253 13.3335 14.7443 13.3335 14.2139V4.21387H14.6668V2.88053ZM6.00016 1.5472H10.0002V2.88053H6.00016V1.5472ZM12.0002 14.2139C12.0002 14.3907 11.9299 14.5602 11.8049 14.6853C11.6799 14.8103 11.5103 14.8805 11.3335 14.8805H4.66683C4.49002 14.8805 4.32045 14.8103 4.19543 14.6853C4.0704 14.5602 4.00016 14.3907 4.00016 14.2139V4.21387H12.0002V14.2139Z" fill="#EB4329"/>
<path d="M7.33333 6.87988H6V12.2132H7.33333V6.87988Z" fill="#EB4329"/>
<path d="M10.0003 6.87988H8.66699V12.2132H10.0003V6.87988Z" fill="#EB4329"/>
</g>
<defs>
<clipPath id="clip0_275_1431">
<rect width="16" height="16" fill="white" transform="translate(0 0.213867)"/>
</clipPath>
</defs>
</svg>
